<svg id="katman_1" xmlns="http://www.w3.org/2000/svg" version="1.1" viewBox="-20 -40 222 278" shape-rendering="crispEdges"><rect x="70.5" y="95.0" width="9.0" height="9.0" fill="#606068"/><rect x="79.5" y="95.0" width="9.0" height="9.0" fill="#585860"/><rect x="142.5" y="95.0" width="9.0" height="9.0" fill="#707078"/><rect x="151.5" y="95.0" width="9.0" height="9.0" fill="#404050"/><rect x="52.5" y="104.0" width="18.0" height="9.0" fill="#e0d8d0"/><rect x="70.5" y="104.0" width="9.0" height="9.0" fill="#a09898"/><rect x="79.5" y="104.0" width="9.0" height="9.0" fill="#989098"/><rect x="142.5" y="104.0" width="18.0" height="9.0" fill="#c0c0b8"/><rect x="160.5" y="104.0" width="9.0" height="9.0" fill="#e8e8e0"/><rect x="52.5" y="113.0" width="9.0" height="9.0" fill="#989098"/><rect x="61.5" y="113.0" width="9.0" height="9.0" fill="#686870"/><rect x="151.5" y="113.0" width="9.0" height="9.0" fill="#585860"/><rect x="160.5" y="113.0" width="9.0" height="9.0" fill="#a09898"/><rect x="169.5" y="113.0" width="9.0" height="9.0" fill="#686870"/><rect x="43.5" y="122.0" width="9.0" height="9.0" fill="#707078"/><rect x="52.5" y="122.0" width="9.0" height="9.0" fill="#e8e8e0"/><rect x="61.5" y="122.0" width="9.0" height="9.0" fill="#707078"/><rect x="151.5" y="122.0" width="9.0" height="27.0" fill="#1f2223"/><rect x="160.5" y="122.0" width="9.0" height="9.0" fill="#e8e8e0"/><rect x="169.5" y="122.0" width="9.0" height="9.0" fill="#a8a8a8"/><rect x="43.5" y="131.0" width="9.0" height="9.0" fill="#606068"/><rect x="52.5" y="131.0" width="9.0" height="9.0" fill="#a09898"/><rect x="61.5" y="131.0" width="9.0" height="9.0" fill="#404050"/><rect x="160.5" y="131.0" width="9.0" height="9.0" fill="#a09898"/><rect x="169.5" y="131.0" width="9.0" height="9.0" fill="#707078"/><rect x="43.5" y="140.0" width="9.0" height="9.0" fill="#686870"/><rect x="52.5" y="140.0" width="9.0" height="9.0" fill="#e0d8d0"/><rect x="61.5" y="140.0" width="9.0" height="9.0" fill="#606068"/><rect x="160.5" y="140.0" width="9.0" height="9.0" fill="#e0d8d0"/><rect x="169.5" y="140.0" width="9.0" height="9.0" fill="#989098"/><rect x="61.5" y="149.0" width="9.0" height="9.0" fill="#989098"/><rect x="70.5" y="149.0" width="9.0" height="9.0" fill="#c0c0b8"/><rect x="79.5" y="149.0" width="18.0" height="9.0" fill="#1f2223"/><rect x="97.5" y="149.0" width="9.0" height="9.0" fill="#404050"/><rect x="106.5" y="149.0" width="18.0" height="9.0" fill="#207038"/><rect x="124.5" y="149.0" width="18.0" height="9.0" fill="#1f2223"/><rect x="142.5" y="149.0" width="9.0" height="9.0" fill="#a09898"/><rect x="151.5" y="149.0" width="9.0" height="9.0" fill="#c0c0b8"/><rect x="160.5" y="149.0" width="9.0" height="9.0" fill="#1f2223"/><rect x="61.5" y="158.0" width="9.0" height="9.0" fill="#c0c0b8"/><rect x="70.5" y="158.0" width="9.0" height="9.0" fill="#e0d8d0"/><rect x="79.5" y="158.0" width="9.0" height="9.0" fill="#a8a8a8"/><rect x="88.5" y="158.0" width="9.0" height="9.0" fill="#e8e8e0"/><rect x="97.5" y="158.0" width="9.0" height="18.0" fill="#207038"/><rect x="106.5" y="158.0" width="18.0" height="9.0" fill="#189038"/><rect x="124.5" y="158.0" width="9.0" height="9.0" fill="#e0d8d0"/><rect x="133.5" y="158.0" width="9.0" height="9.0" fill="#e8e8e0"/><rect x="142.5" y="158.0" width="9.0" height="9.0" fill="#c0c0b8"/><rect x="151.5" y="158.0" width="9.0" height="9.0" fill="#e0d8d0"/><rect x="88.5" y="167.0" width="9.0" height="9.0" fill="#a09898"/><rect x="106.5" y="167.0" width="18.0" height="9.0" fill="#207038"/><rect x="124.5" y="167.0" width="9.0" height="9.0" fill="#707078"/><rect x="133.5" y="167.0" width="9.0" height="9.0" fill="#a09898"/></svg>
