<?xml version="1.0" encoding="UTF-8"?>
<svg id="katman_1" xmlns="http://www.w3.org/2000/svg" version="1.1" viewBox="0 0 202 238">
  <!-- Generator: Adobe Illustrator 30.5.1, SVG Export Plug-In . SVG Version: 2.1.4 Build 3)  -->
  <defs>
    <style>
      .st0 {
        fill: #959379;
      }

      .st1 {
        fill: none;
      }

      .st2 {
        fill: #424944;
      }

      .st3 {
        fill: #3f4541;
      }

      .st4 {
        fill: #414944;
      }

      .st5 {
        fill: #959279;
      }

      .st6 {
        fill: #1f2223;
      }

      .st7 {
        fill: #606659;
      }
    </style>
  </defs>
  <path class="st0" d="M142,34v-16h7v-10h19v81h6v23h-6v12l-18,11.07-57.91-1.07-21.09.06v-9.06h-12v-13l-7,.07-7-10.07v-18h13v-1h-13v-13h7V8h20v10h8v16"/>
  <polyline class="st5" points="57 231 44 222 44 200.98 45 195.06 45 174 45.22 162.9 58 163 64 163 64 147 71 147 71 141 151 141 151 168 151 212 159 212 159 230 159.17 231.35 158.62 231.8 157 232 151 231 127 231 127 230 127 207 121 207 121 174 115 174 121 207 121 212 121 222 121 230 121 231 97 231 97 207 91 206.91 92 190.48 92 181.02 91 174 91 231 58 231"/>
  <line class="st1" x1="84" y1="229.9" x2="80" y2="230"/>
  <polygon class="st6" points="159 212 151 212 151 168.19 151 124 158 124 158.64 124 168 124 168 112 176 112 168 112 168 89 168 47 168 8 149 8 149 0 176 0 176 56 176 83 176 112 176 125 168 125 168 133 159 133 159 211.06 159 212"/>
  <polygon class="st6" points="45 173 45 182 45 195 45 201.11 45 222 58 222 58 231 84.37 231 91 231 91 222.26 91 174 97 174 97 231 110 231 121 231 159 231 159 238 45 238 45 231 37 231 37 222 30 222 30 214 18 214 18 202 7.11 201.92 7 194 7.17 188 14 188 14 194 23 194 23 201 33 201 36 201 36 183 23.22 182.9 23.22 146.9 32.22 146.9 38.22 146.9 38.22 150.9 32.22 150.9 32.22 172.9 45 173"/>
  <path class="st6" d="M52,70h-7v13h19v7h-19v2h19v7h-19v2h19v7h-12v4h-15v-4h-11v-7h11v-2h-11v-7h11v-2h-11v-7h11v-17h15v4Z"/>
  <polygon class="st6" points="72 8 52 8 52 25 52 47 52 66 46 66 46 58.28 46 6 52 6 52 0 72 0 72 8.03 72 8"/>
  <polygon class="st6" points="71 124 71 147 64 147 64 163 45.22 162.9 45.22 172.9 41.22 172.9 41.22 156.9 58.22 156.9 58 142 64 142 64 130 59 130 59 124 71 124"/>
  <polygon class="st6" points="7 147 7 181.96 7.03 188.19 7 194 0 194 0 143 7 143 7 147"/>
  <polyline class="st6" points="142 34 137 34 80 34 80 18 72 18 72 8 80 8 80 18 89 18 89 26 142 26"/>
  <rect class="st6" x="45" y="112" width="14" height="13"/>
  <rect class="st6" x="159" y="212" width="8" height="18"/>
  <polygon class="st6" points="18 133 18 139 14 139 14 147 5 147 5 143 5 133 18 133"/>
  <polygon class="st6" points="37.22 132.9 41.22 132.9 41.22 150.9 38.22 150.9 37.22 132.9"/>
  <rect class="st6" x="18" y="126" width="20" height="7"/>
  <polygon class="st6" points="142 19 142 26.97 131 26 131 18 142 18 142 19"/>
  <rect class="st6" x="142" y="8" width="7" height="10"/>
  <polygon class="st7" points="151 141 71 141 71 124 79 124 79 133 143 133 143 124 151 124 151 141"/>
  <polygon class="st2" points="130 105 119 105 119 113 98 113 98 105 119 105 119 89 130 89 130 105"/>
  <rect class="st3" x="80" y="69" width="16" height="20"/>
  <rect class="st4" x="141" y="69" width="16" height="20"/>
  <polygon class="st6" points="121 174 121 175.05 121 207 127 207 127 231 121 231 121 222 121 207 115 207 115 174 121 174"/>
  <polygon class="st5" points="38.09 147 46.12 147 23.22 146.9 23.22 159.9 23.22 172.9 23.22 182.9 36.09 183 36.09 201 23.05 201 23.05 194 14.02 194 14.02 188 7 188 7 147 14.02 147 14.02 139 18.03 139 18.03 133 38.09 133 38.09 147"/>
  <polyline class="st2" points="145 105 145 113 130 113 130 105"/>
  <polygon class="st6" points="91 206 70 206 70 200 79 200 79 178 84 178 84 200 91 200 91 206"/>
  <rect class="st6" x="65" y="174" width="14" height="4"/>
  <path class="st6" d="M191,83h11v7h-26v2h26v7h-26v2h26v7h-38v-7h4v-2h-4v-7h4v-2h-4v-7h27Z"/>
</svg>